<?xml version="1.0" encoding="UTF-8"?>
<svg version="1.1" viewBox="0 0 64 64" xmlns="http://www.w3.org/2000/svg">
 <defs>
  <filter id="a" color-interpolation-filters="sRGB">
   <feGaussianBlur stdDeviation="2.6344901"/>
  </filter>
  <filter id="f" x="-.61436" y="-.66162" width="2.2287" height="2.3232" color-interpolation-filters="sRGB">
   <feGaussianBlur stdDeviation="18.723333"/>
  </filter>
  <filter id="h" x="-.59647" y="-.64235" width="2.1929" height="2.2847" color-interpolation-filters="sRGB">
   <feGaussianBlur stdDeviation="18.177993"/>
  </filter>
  <filter id="i" x="-.68594" y="-.7387" width="2.3719" height="2.4774" color-interpolation-filters="sRGB">
   <feGaussianBlur stdDeviation="20.904692"/>
  </filter>
  <filter id="g" color-interpolation-filters="sRGB">
   <feGaussianBlur stdDeviation="2.2248211"/>
  </filter>
  <filter id="e" x="-.17076" y="-.12762" width="1.3415" height="1.2552" color-interpolation-filters="sRGB">
   <feGaussianBlur stdDeviation="10.664217"/>
  </filter>
  <filter id="j" color-interpolation-filters="sRGB">
   <feGaussianBlur stdDeviation="2.2070246"/>
  </filter>
  <filter id="b" color-interpolation-filters="sRGB">
   <feGaussianBlur stdDeviation="1.0968074"/>
  </filter>
  <linearGradient id="d" x1="-129.75" x2="-297.8" y1="431.89" y2="451.51" gradientUnits="userSpaceOnUse">
   <stop stop-color="#870b1a" offset="0"/>
   <stop stop-color="#6a5570" offset="1"/>
  </linearGradient>
  <radialGradient id="c" cx="198.44" cy="425.98" r="36.571" gradientTransform="matrix(-1.7159e-7 -1.2252 1.5403 -2.1849e-7 -465.07 656.24)" gradientUnits="userSpaceOnUse">
   <stop stop-color="#fffefc" offset="0"/>
   <stop stop-color="#e91b63" offset="1"/>
  </radialGradient>
 </defs>
 <g fill-rule="evenodd" stroke-width="0">
  <g fill="#777" stroke="#c50707">
   <path transform="matrix(.2787 0 0 .035979 61.603 27.642)" d="m-21.11 620.66a74.941 100.27 0 1 1 -149.88 0 74.941 100.27 0 1 1 149.88 0z" filter="url(#e)"/>
  </g>
  <path transform="matrix(.14113 0 0 .14627 46.641 -33.078)" d="m28.362 436.25a163.08 151.88 0 1 1 -326.16 0 163.08 151.88 0 1 1 326.16 0z" fill="url(#d)" stroke="#bf1212"/>
 </g>
 <g fill="none">
  <g transform="matrix(.14444 0 0 .14242 -.99353 -26.243)">
   <path d="m123.9 265.7c137.91 12.899 190.12 215.35 67.918 287.72" filter="url(#b)" opacity=".6" stroke="#130909" stroke-dasharray="12.6,4.2" stroke-width="4.2"/>
   <path d="m124.64 262.71c135.68 16.547 189.39 218.71 67.177 290.72" stroke="#bd8c8c" stroke-dasharray="8.38,4.19,2.095,4.19" stroke-width="4.19"/>
  </g>
  <g transform="matrix(.14444 0 0 .14242 1.5937 -27.094)">
   <path d="m123.9 265.7c128.96 17.377 175.94 220.94 63.44 292.57" filter="url(#b)" opacity=".6" stroke="#130909" stroke-dasharray="12.6,4.2" stroke-width="4.2"/>
   <g stroke-dasharray="8.38,4.19,2.095,4.19" stroke-width="4.19">
    <path d="m119.41 263.46c135.68 16.547 180.43 226.55 71.655 295.57" stroke="#c1aaaa"/>
    <path d="m147.03 257.49c135.68 16.547 180.43 226.55 71.655 295.57" filter="url(#j)" stroke="#383434"/>
   </g>
  </g>
  <path d="m37.923 50.607c10.609-14.956 11.051-29.572-9.271-41.986" stroke="#b2b2b2" stroke-dasharray="1.54897465,0.77448733" stroke-width=".387"/>
  <g stroke="#553e3e" stroke-dasharray="10.8,5.4" stroke-width="2.7">
   <path transform="matrix(.14444 0 0 .14242 -.99353 -26.243)" d="m270.18 537c73.451-105.01 78.004-205.03-62.694-292.2" filter="url(#a)"/>
   <path transform="matrix(.14444 0 0 .14242 -.99353 -26.243)" d="m281.38 530.66c54.792-75.905 78.004-199.43-62.694-286.6" filter="url(#a)"/>
  </g>
  <path d="m40.079 49.013c7.2672-9.641 11.374-27.659-8.9475-40.073" stroke="#b4b1b1" stroke-dasharray="1.54897465,0.77448733" stroke-width=".387"/>
 </g>
 <g fill-rule="evenodd" stroke-linecap="round" stroke-linejoin="round">
  <path transform="matrix(.1038 0 0 .10235 5.6217 -8.5101)" d="m227.64 413.11a36.571 33.959 0 1 1 -73.143 0 36.571 33.959 0 1 1 73.143 0z" fill="url(#c)" filter="url(#f)" stroke="#c50707" stroke-width="6.7"/>
  <g stroke-width="0">
   <path transform="matrix(.072219 0 0 .071208 4.6122 -6.4992)" d="m227.64 413.11a36.571 33.959 0 1 1 -73.143 0 36.571 33.959 0 1 1 73.143 0z" fill="#e7165a" filter="url(#i)" opacity=".421"/>
   <path transform="matrix(.072219 0 0 .071208 .30007 8.9135)" d="m227.64 413.11a36.571 33.959 0 1 1 -73.143 0 36.571 33.959 0 1 1 73.143 0z" fill="#ad031d" filter="url(#h)" opacity=".463"/>
  </g>
 </g>
 <path transform="matrix(.14444 0 0 .14242 -.99353 -26.243)" d="m320.93 482.15c28.084-63.507 61.442-145.97-52.991-216.44 45.403 55.654 80.337 117.53 52.991 216.44z" fill="#212121" filter="url(#g)" opacity=".226" stroke-width="0"/>
</svg>
